<svg xmlns="http://www.w3.org/2000/svg" viewBox="0 0 64 64" fill="none">
  <!-- TV with Perl camel -->
  <!-- TV body -->
  <rect x="4" y="24" width="32" height="24" rx="3" stroke="currentColor" stroke-width="2.5" fill="none"/>
  <!-- Screen -->
  <rect x="8" y="28" width="20" height="14" rx="1" stroke="currentColor" stroke-width="1.5" fill="none"/>
  <!-- Antenna -->
  <path d="M14 24l-4-8M26 24l4-8" stroke="currentColor" stroke-width="2" stroke-linecap="round"/>
  <!-- TV legs -->
  <path d="M10 48v4M30 48v4" stroke="currentColor" stroke-width="2.5" stroke-linecap="round"/>
  <!-- Camel silhouette -->
  <!-- Body -->
  <ellipse cx="50" cy="44" rx="10" ry="6" stroke="currentColor" stroke-width="2" fill="none"/>
  <!-- Hump -->
  <path d="M46 38c2-4 6-4 8 0" stroke="currentColor" stroke-width="2" stroke-linecap="round" fill="none"/>
  <!-- Neck and head -->
  <path d="M54 40c2-2 4-8 4-12" stroke="currentColor" stroke-width="2" stroke-linecap="round"/>
  <!-- Head -->
  <ellipse cx="58" cy="24" rx="4" ry="3" stroke="currentColor" stroke-width="2" fill="none"/>
  <!-- Ear -->
  <path d="M56 21l-1-3" stroke="currentColor" stroke-width="1.5" stroke-linecap="round"/>
  <!-- Legs -->
  <path d="M44 50v6M48 50v6M52 50v6M56 50v6" stroke="currentColor" stroke-width="2" stroke-linecap="round"/>
  <!-- Eye -->
  <circle cx="59" cy="23" r="1" fill="currentColor"/>
</svg>