<?xml version="1.0" encoding="utf-8"?>
<!-- Generator: Adobe Illustrator 17.0.0, SVG Export Plug-In . SVG Version: 6.00 Build 0)  -->
<!DOCTYPE svg PUBLIC "-//W3C//DTD SVG 1.1//EN" "http://www.w3.org/Graphics/SVG/1.1/DTD/svg11.dtd">
<svg version="1.1" id="Layer_2" xmlns="http://www.w3.org/2000/svg" xmlns:xlink="http://www.w3.org/1999/xlink" x="0px" y="0px"
	 width="27px" height="37.167px" viewBox="0 0 27 37.167" enable-background="new 0 0 27 37.167" xml:space="preserve">
<g>
	<g>
		<rect x="1" fill="#F66600" width="5" height="24"/>
	</g>
	<g>
		<path fill="#F66600" d="M27,27H0V0h27V27z M3,24h21V3H3V24z"/>
	</g>
	<g>
		<path fill="#F66600" d="M27,33H0v-9h27V33z M3,30h21v-3H3V30z"/>
	</g>
	<g>
		<rect x="7" y="28" fill="#F66600" width="7" height="5"/>
	</g>
	<g>
		<polygon fill="#F66600" points="7,36.03 7,33 11.333,33 7,37.167 		"/>
	</g>
	<g>
		<polygon fill="#F66600" points="14,36.03 14,33 10,33 14,37.167 		"/>
	</g>
</g>
<rect x="8" y="6" fill="#F66600" width="3" height="3"/>
<rect x="8" y="12" fill="#F66600" width="3" height="3"/>
<rect x="8" y="18" fill="#F66600" width="3" height="3"/>
</svg>
