<?xml version="1.0" encoding="utf-8"?>
<!-- Generator: Adobe Illustrator 17.0.0, SVG Export Plug-In . SVG Version: 6.00 Build 0)  -->
<!DOCTYPE svg PUBLIC "-//W3C//DTD SVG 1.1//EN" "http://www.w3.org/Graphics/SVG/1.1/DTD/svg11.dtd">
<svg version="1.1" id="Layer_1" xmlns="http://www.w3.org/2000/svg" xmlns:xlink="http://www.w3.org/1999/xlink" x="0px" y="0px"
	 width="219.439px" height="219.439px" viewBox="0 0 219.439 219.439" enable-background="new 0 0 219.439 219.439"
	 xml:space="preserve">
<g>
	<polygon fill="#F66600" points="75.627,138.602 108.376,171.351 141.125,138.602 131.834,129.311 114.346,146.8 114.346,53.298 
		102.407,53.298 102.407,146.8 84.918,129.311 	"/>
</g>
<g>
	<path fill="#F66600" d="M109.719,219.439C49.22,219.439,0,170.223,0,109.719S49.22,0,109.719,0s109.719,49.22,109.719,109.719
		S170.223,219.439,109.719,219.439z M109.719,10.604c-50.749,0-99.116,48.367-99.116,99.116s48.367,99.116,99.116,99.116
		s99.116-48.367,99.116-99.116S160.472,10.604,109.719,10.604z"/>
</g>
</svg>
