<?xml version="1.0" encoding="utf-8"?>
<!-- Generator: Adobe Illustrator 17.0.0, SVG Export Plug-In . SVG Version: 6.00 Build 0)  -->
<!DOCTYPE svg PUBLIC "-//W3C//DTD SVG 1.1//EN" "http://www.w3.org/Graphics/SVG/1.1/DTD/svg11.dtd">
<svg version="1.1" id="Layer_2" xmlns="http://www.w3.org/2000/svg" xmlns:xlink="http://www.w3.org/1999/xlink" x="0px" y="0px"
	 width="30.875px" height="31.321px" viewBox="0 0 30.875 31.321" enable-background="new 0 0 30.875 31.321" xml:space="preserve">
<path fill="#383838" d="M13.45,9.774V6.08c0,0-8.299,3.54-9.454,18.162C1.379,28.474,0,31.321,0,31.321l2.581-0.77
	c0,0,10.41-16.7,12.878-16.716c0.646-0.031-7.075,10.098-7.075,10.098s9.009-3.54,9.394-3.848c0.385-0.308-2.229-1.77-2.229-1.77
	s4.157-0.539,5.619-0.923C22.63,17.007,31.865,11.005,30.788,0C20.284,1.01,15.313,2.386,14.706,8.092
	C14.664,8.48,13.45,9.416,13.45,9.774z"/>
<path fill="#383838" d="M0.083,31.321c0,0,1.997-0.387,2.54-0.77c2.716-4.648,12.241-16.544,12.241-16.544S4.548,21.08,0.083,31.321
	z"/>
</svg>
