<?xml version="1.0" encoding="utf-8"?>
<!-- Generator: Adobe Illustrator 17.0.0, SVG Export Plug-In . SVG Version: 6.00 Build 0)  -->
<!DOCTYPE svg PUBLIC "-//W3C//DTD SVG 1.1//EN" "http://www.w3.org/Graphics/SVG/1.1/DTD/svg11.dtd">
<svg version="1.1" id="Layer_2" xmlns="http://www.w3.org/2000/svg" xmlns:xlink="http://www.w3.org/1999/xlink" x="0px" y="0px"
	 width="29.402px" height="23.895px" viewBox="0 0 29.402 23.895" enable-background="new 0 0 29.402 23.895" xml:space="preserve">
<path fill="#383838" d="M29.402,2.829c-1.082,0.48-2.244,0.804-3.465,0.95c1.246-0.747,2.202-1.929,2.652-3.337
	c-1.165,0.691-2.456,1.193-3.831,1.464C23.659,0.733,22.092,0,20.357,0c-3.332,0-6.032,2.701-6.032,6.032
	c0,0.473,0.053,0.933,0.156,1.375C9.467,7.155,5.022,4.754,2.047,1.104C1.528,1.995,1.23,3.031,1.23,4.137
	c0,2.093,1.065,3.939,2.684,5.021C2.925,9.126,1.995,8.855,1.181,8.403c0,0.025-0.001,0.05-0.001,0.076
	c0,2.923,2.079,5.361,4.839,5.915c-0.506,0.138-1.039,0.212-1.589,0.212c-0.389,0-0.767-0.038-1.135-0.108
	c0.768,2.397,2.995,4.141,5.635,4.189c-2.065,1.618-4.666,2.582-7.492,2.582c-0.487,0-0.967-0.029-1.439-0.084
	c2.67,1.712,5.84,2.71,9.247,2.71c11.096,0,17.163-9.192,17.163-17.163c0-0.262-0.006-0.522-0.017-0.78
	C27.571,5.101,28.594,4.038,29.402,2.829z"/>
</svg>
